<?xml version="1.0" standalone="no"?>
<!DOCTYPE svg PUBLIC "-//W3C//DTD SVG 20010904//EN"
 "http://www.w3.org/TR/2001/REC-SVG-20010904/DTD/svg10.dtd">
<svg version="1.0" xmlns="http://www.w3.org/2000/svg"
 width="1280.000000pt" height="861.000000pt" viewBox="0 0 1280.000000 861.000000"
 preserveAspectRatio="xMidYMid meet">
<metadata>
Created by potrace 1.15, written by Peter Selinger 2001-2017
</metadata>
<g transform="translate(0.000000,861.000000) scale(0.100000,-0.100000)"
fill="#000000" stroke="none">
<path d="M4377 8490 c-120 -65 -457 -245 -750 -399 -930 -488 -1366 -734
-1792 -1011 -1064 -692 -1631 -1328 -1810 -2032 -31 -119 -31 -127 0 -247 79
-313 236 -630 463 -933 162 -216 405 -475 654 -697 70 -62 125 -118 123 -124
-10 -26 273 -311 555 -561 32 -29 169 -141 214 -176 10 -8 33 -27 50 -41 257
-212 948 -676 1491 -1001 11 -6 78 -47 149 -90 70 -43 130 -78 132 -78 2 0 28
-15 57 -34 58 -38 397 -239 412 -245 6 -2 29 -17 52 -32 23 -16 44 -29 46 -29
2 0 64 -37 138 -82 159 -96 315 -172 384 -187 179 -36 240 94 180 384 -14 72
-62 275 -105 453 -110 447 -115 472 -115 587 1 114 12 144 71 193 77 63 195
67 551 18 834 -117 1580 -166 2503 -166 1112 0 2159 77 3498 256 499 66 598
93 689 186 63 65 77 93 97 190 14 67 16 184 15 885 -1 444 -4 1150 -8 1568 -7
725 -9 763 -28 833 -48 170 -152 247 -422 312 -96 23 -136 29 -141 20 -4 -6
-10 107 -13 251 -3 144 -8 263 -9 265 -6 5 -648 137 -893 183 -1918 363 -3579
444 -5080 246 -146 -19 -451 -65 -610 -91 l-30 -4 28 12 c16 7 28 15 27 18 -3
6 7 40 50 175 97 309 106 453 31 520 -34 30 -133 33 -218 5 -99 -32 -441 -209
-449 -232 -3 -11 -8 -18 -10 -15 -7 6 248 699 365 995 12 29 21 57 21 62 0 6
-68 10 -172 10 l-173 -1 -218 -119z m-3076 -5457 c13 -16 12 -17 -3 -4 -10 7
-18 15 -18 17 0 8 8 3 21 -13z"/>
<path d="M1235 3070 c10 -11 20 -20 23 -20 3 0 -3 9 -13 20 -10 11 -20 20 -23
20 -3 0 3 -9 13 -20z"/>
</g>
</svg>
