<?xml version="1.0" standalone="no"?>
<!DOCTYPE svg PUBLIC "-//W3C//DTD SVG 20010904//EN"
 "http://www.w3.org/TR/2001/REC-SVG-20010904/DTD/svg10.dtd">
<svg version="1.0" xmlns="http://www.w3.org/2000/svg"
 width="1280.000000pt" height="895.000000pt" viewBox="0 0 1280.000000 895.000000"
 preserveAspectRatio="xMidYMid meet">
<metadata>
Created by potrace 1.15, written by Peter Selinger 2001-2017
</metadata>
<g transform="translate(0.000000,895.000000) scale(0.100000,-0.100000)"
fill="#000000" stroke="none">
<path d="M8005 8774 c-82 -58 -157 -109 -165 -114 -18 -10 0 -53 202 -474 81
-169 148 -311 148 -315 -1 -3 -8 7 -17 23 l-16 30 -24 -48 c-62 -122 -33 -276
113 -584 20 -42 72 -150 115 -240 44 -90 82 -174 85 -187 3 -13 15 -27 26 -31
11 -3 17 -8 15 -10 -3 -3 -97 20 -209 50 -944 256 -1728 385 -2783 458 -241
17 -1244 17 -1510 0 -1034 -65 -1907 -200 -2953 -455 -123 -30 -226 -57 -229
-60 -5 -6 -16 -134 -123 -1467 -123 -1547 -140 -1754 -137 -1756 1 -1 25 2 52
6 52 9 118 12 100 4 -16 -6 -1 -259 18 -324 10 -30 32 -78 50 -105 104 -159
276 -185 727 -111 1965 326 3660 447 4955 356 628 -45 1254 -144 1501 -239 40
-16 54 -17 64 -8 56 50 -113 -144 -227 -263 -213 -220 -346 -339 -1111 -989
-139 -118 -251 -220 -248 -227 10 -26 219 -344 226 -344 4 0 124 54 266 121
143 67 269 125 282 130 38 15 24 2 -29 -25 -61 -33 -292 -258 -343 -336 -38
-59 -66 -137 -66 -185 1 -76 64 -152 145 -174 133 -36 258 2 775 237 91 41
209 94 263 118 53 24 143 65 200 90 56 26 140 63 187 84 47 21 132 59 190 85
58 26 139 62 180 80 41 18 149 65 240 104 392 172 956 411 1330 564 464 190
545 223 1096 440 319 126 409 168 499 232 160 113 223 265 195 467 -15 113
-44 228 -60 238 -7 4 12 17 44 30 31 12 56 24 56 27 0 16 -110 415 -147 533
-213 682 -573 1336 -1088 1980 -375 468 -811 915 -1730 1775 -264 247 -586
554 -716 682 -130 128 -242 233 -250 232 -8 0 -81 -47 -164 -105z"/>
</g>
</svg>
