<?xml version="1.0" standalone="no"?>
<!DOCTYPE svg PUBLIC "-//W3C//DTD SVG 20010904//EN"
 "http://www.w3.org/TR/2001/REC-SVG-20010904/DTD/svg10.dtd">
<svg version="1.0" xmlns="http://www.w3.org/2000/svg"
 width="1280.000000pt" height="864.000000pt" viewBox="0 0 1280.000000 864.000000"
 preserveAspectRatio="xMidYMid meet">
<metadata>
Created by potrace 1.15, written by Peter Selinger 2001-2017
</metadata>
<g transform="translate(0.000000,864.000000) scale(0.100000,-0.100000)"
fill="#000000" stroke="none">
<path d="M7540 7781 c0 -5 51 -171 114 -368 180 -565 175 -549 166 -618 -18
-138 -54 -224 -125 -292 -49 -47 -68 -59 -148 -91 -15 -7 -68 -17 -117 -24
-114 -15 -271 -2 -593 47 -402 62 -683 93 -1147 127 -237 18 -1286 18 -1550 0
-415 -27 -794 -63 -1155 -108 -660 -83 -1453 -222 -1398 -246 11 -5 2 -6 -22
-3 -29 4 -36 3 -25 -4 13 -9 12 -11 -5 -11 -11 0 -150 -29 -310 -64 l-290 -63
-7 -44 c-3 -24 -9 -796 -14 -1714 l-7 -1671 314 -47 c1039 -156 1987 -248
2990 -288 372 -15 1375 -6 1724 15 536 32 919 71 1489 151 64 9 113 12 120 7
6 -5 31 -14 56 -20 81 -20 138 -51 193 -106 85 -85 119 -174 132 -341 3 -44 8
-96 11 -115 4 -27 2 -31 -6 -20 -8 12 -9 9 -5 -10 4 -16 -43 -231 -120 -554
-69 -291 -124 -530 -122 -532 1 -2 207 119 457 268 250 149 594 354 765 456
691 412 1116 691 1535 1008 739 560 1215 1134 1389 1676 51 157 63 219 57 271
-17 126 -104 362 -193 522 -128 230 -245 379 -491 625 -102 102 -174 176 -161
165 l24 -20 -19 22 c-10 13 -22 21 -26 18 -4 -2 -20 8 -36 23 -17 15 -21 20
-10 12 21 -15 21 -15 2 7 -10 13 -22 20 -27 18 -4 -3 -18 5 -31 17 -16 15 -17
18 -3 8 20 -15 20 -15 2 7 -11 12 -24 20 -31 17 -7 -3 -21 6 -32 18 l-19 23
25 -20 25 -20 -18 22 c-11 12 -24 19 -31 17 -7 -3 -19 3 -27 13 -13 17 -13 17
6 3 18 -14 19 -14 7 2 -8 9 -19 15 -26 12 -7 -3 -21 6 -32 18 l-19 23 23 -19
c12 -11 22 -16 22 -13 0 13 -190 148 -199 142 -5 -3 -13 0 -17 6 -4 8 -3 9 4
5 7 -4 12 -5 12 -2 0 11 -151 107 -160 101 -5 -3 -12 0 -16 6 -5 8 -2 10 7 5
8 -4 3 2 -10 14 -13 11 -30 19 -38 16 -7 -3 -12 0 -10 6 1 6 -4 13 -12 16 -9
3 -11 0 -6 -9 5 -8 4 -11 -1 -6 -5 5 -9 14 -9 20 0 5 -6 12 -14 15 -9 3 -11 0
-6 -9 5 -8 4 -11 -1 -6 -5 5 -9 14 -9 20 0 5 -6 12 -14 15 -9 3 -11 0 -6 -8 5
-9 4 -11 -4 -6 -6 4 -9 11 -6 15 2 5 -22 25 -54 45 -62 38 -77 44 -65 24 4 -7
3 -8 -5 -4 -6 4 -9 11 -6 16 3 5 -14 20 -38 34 -48 28 -62 32 -51 14 4 -7 3
-8 -5 -4 -6 4 -9 11 -6 16 7 12 -82 63 -95 55 -6 -4 -9 -1 -8 5 4 14 -272 175
-582 340 -80 42 -163 87 -185 100 -129 73 -599 301 -611 296 -8 -3 -13 -2 -10
3 3 4 -6 13 -20 20 -14 6 -23 7 -19 1 3 -6 -1 -7 -9 -4 -9 3 -13 10 -10 15 3
5 -3 6 -12 2 -13 -5 -15 -3 -9 7 5 9 4 11 -4 6 -12 -8 -306 140 -671 337 -257
138 -260 139 -260 128z m2370 -1237 c0 -2 -9 0 -20 6 -11 6 -20 13 -20 16 0 2
9 0 20 -6 11 -6 20 -13 20 -16z m-5627 -1 c-13 -2 -33 -2 -45 0 -13 2 -3 4 22
4 25 0 35 -2 23 -4z m1335 0 c-10 -2 -28 -2 -40 0 -13 2 -5 4 17 4 22 1 32 -1
23 -4z m-1675 -20 c-7 -2 -21 -2 -30 0 -10 3 -4 5 12 5 17 0 24 -2 18 -5z
m1980 0 c-7 -2 -21 -2 -30 0 -10 3 -4 5 12 5 17 0 24 -2 18 -5z m-2230 -20
c-7 -2 -19 -2 -25 0 -7 3 -2 5 12 5 14 0 19 -2 13 -5z m2450 0 c-7 -2 -19 -2
-25 0 -7 3 -2 5 12 5 14 0 19 -2 13 -5z m-2660 -20 c-7 -2 -21 -2 -30 0 -10 3
-4 5 12 5 17 0 24 -2 18 -5z m2854 1 c-3 -3 -12 -4 -19 -1 -8 3 -5 6 6 6 11 1
17 -2 13 -5z m-3060 -20 c-3 -3 -12 -4 -19 -1 -8 3 -5 6 6 6 11 1 17 -2 13 -5z
m3230 0 c-3 -3 -12 -4 -19 -1 -8 3 -5 6 6 6 11 1 17 -2 13 -5z m-3400 -20 c-3
-3 -12 -4 -19 -1 -8 3 -5 6 6 6 11 1 17 -2 13 -5z m3540 0 c-3 -3 -12 -4 -19
-1 -8 3 -5 6 6 6 11 1 17 -2 13 -5z m-3700 -20 c-3 -3 -12 -4 -19 -1 -8 3 -5
6 6 6 11 1 17 -2 13 -5z m3840 0 c-3 -3 -12 -4 -19 -1 -8 3 -5 6 6 6 11 1 17
-2 13 -5z m-3990 -20 c-3 -3 -12 -4 -19 -1 -8 3 -5 6 6 6 11 1 17 -2 13 -5z
m4110 0 c-3 -3 -12 -4 -19 -1 -8 3 -5 6 6 6 11 1 17 -2 13 -5z m3353 -70 c0
-2 -9 0 -20 6 -11 6 -20 13 -20 16 0 2 9 0 20 -6 11 -6 20 -13 20 -16z m-7993
-10 c-3 -3 -12 -4 -19 -1 -8 3 -5 6 6 6 11 1 17 -2 13 -5z m-120 -20 c-3 -3
-12 -4 -19 -1 -8 3 -5 6 6 6 11 1 17 -2 13 -5z m-120 -20 c-3 -3 -12 -4 -19
-1 -8 3 -5 6 6 6 11 1 17 -2 13 -5z m-384 -71 c-7 -2 -19 -2 -25 0 -7 3 -2 5
12 5 14 0 19 -2 13 -5z m8917 -79 c0 -3 -20 9 -45 26 -25 17 -45 33 -45 36 0
3 20 -9 45 -26 25 -17 45 -33 45 -36z m61 -41 c13 -16 12 -17 -3 -4 -17 13
-22 21 -14 21 2 0 10 -8 17 -17z m79 -59 c0 -3 -13 4 -30 16 -16 12 -30 24
-30 26 0 3 14 -4 30 -16 17 -12 30 -24 30 -26z m31 -21 c13 -16 12 -17 -3 -4
-17 13 -22 21 -14 21 2 0 10 -8 17 -17z"/>
<path d="M7518 2463 c7 -3 16 -2 19 1 4 3 -2 6 -13 5 -11 0 -14 -3 -6 -6z"/>
</g>
</svg>
