<?xml version="1.0" standalone="no"?>
<!DOCTYPE svg PUBLIC "-//W3C//DTD SVG 20010904//EN"
 "http://www.w3.org/TR/2001/REC-SVG-20010904/DTD/svg10.dtd">
<svg version="1.0" xmlns="http://www.w3.org/2000/svg"
 width="1280.000000pt" height="864.000000pt" viewBox="0 0 1280.000000 864.000000"
 preserveAspectRatio="xMidYMid meet">
<metadata>
Created by potrace 1.15, written by Peter Selinger 2001-2017
</metadata>
<g transform="translate(0.000000,864.000000) scale(0.100000,-0.100000)"
fill="#000000" stroke="none">
<path d="M5060 7684 c-369 -199 -1130 -590 -1130 -579 0 2 68 39 151 81 83 42
148 78 146 81 -5 4 -516 -251 -667 -333 -47 -25 -143 -78 -215 -116 -71 -39
-160 -88 -197 -109 -38 -22 -98 -56 -135 -77 -235 -134 -584 -349 -608 -374
-13 -14 7 -3 60 32 76 51 380 233 560 335 302 171 875 473 875 461 0 -2 -96
-54 -212 -114 -526 -272 -969 -526 -1305 -748 -70 -46 -128 -82 -130 -80 -2 1
28 24 67 50 38 25 70 49 70 51 0 3 -34 -17 -75 -45 -41 -28 -74 -55 -72 -61 1
-7 -4 -14 -12 -17 -9 -3 -11 0 -6 8 5 9 4 11 -4 6 -6 -4 -9 -11 -7 -15 5 -8
-47 -51 -61 -51 -4 0 6 12 22 26 l30 26 -32 -22 c-18 -11 -32 -26 -30 -33 1
-7 -6 -12 -15 -12 -9 0 -20 -4 -25 -9 -5 -5 -2 -6 7 -1 13 8 13 7 1 -8 -16
-20 -36 -23 -25 -4 5 8 2 8 -9 -2 -20 -16 -23 -26 -4 -15 8 5 8 2 -2 -9 -16
-20 -36 -23 -25 -4 5 8 2 7 -9 -2 -10 -8 -15 -16 -12 -19 6 -7 -15 -32 -27
-32 -5 0 -6 6 -2 13 4 7 3 9 -2 4 -5 -5 -9 -12 -9 -15 0 -13 -16 -32 -26 -32
-6 0 -7 6 -3 13 5 8 2 7 -9 -2 -10 -8 -15 -16 -12 -19 6 -7 -15 -32 -27 -32
-5 0 -6 6 -2 13 5 8 3 8 -9 -2 -9 -7 -15 -17 -12 -21 7 -12 -36 -41 -48 -33
-6 3 -7 1 -4 -4 8 -13 -149 -149 -166 -145 -7 2 -9 0 -5 -4 4 -4 -47 -64 -115
-133 -329 -338 -539 -689 -618 -1035 l-23 -99 26 -101 c168 -655 703 -1296
1643 -1967 387 -277 736 -501 1346 -865 228 -136 589 -352 804 -480 214 -128
391 -232 392 -230 3 3 -94 414 -253 1075 -19 79 -33 146 -30 148 2 2 11 -28
21 -67 9 -38 18 -70 19 -70 0 0 1 46 2 103 1 199 56 326 187 433 7 6 24 15 38
19 13 4 29 11 34 15 17 13 98 33 135 32 31 0 32 1 10 8 -14 4 -38 9 -55 10
-16 1 -24 4 -17 7 7 2 56 -2 110 -11 296 -48 776 -103 1192 -136 537 -43 1410
-61 2000 -41 1024 35 1973 125 3163 302 l217 33 -1 665 c-3 1630 -14 2751 -27
2760 -15 9 -144 37 -552 121 -157 32 -276 59 -265 59 11 1 52 -6 90 -14 98
-21 115 -17 25 6 -203 51 -618 124 -1085 188 -473 66 -862 106 -1410 143 -256
18 -1305 18 -1550 0 -450 -32 -746 -65 -1152 -127 -428 -66 -599 -69 -734 -13
-61 25 -59 24 -115 72 -70 60 -132 206 -135 316 -1 33 -2 32 -21 -23 -29 -84
-32 -65 -4 24 13 41 49 153 80 249 174 550 226 712 231 720 12 20 -14 7 -205
-96z m2863 -1121 c-29 -2 -77 -2 -105 0 -29 2 -6 3 52 3 58 0 81 -1 53 -3z
m-335 -10 c-49 -2 -127 -2 -175 0 -49 1 -9 3 87 3 96 0 136 -2 88 -3z m735 0
c-51 -2 -136 -2 -190 0 -54 1 -12 3 92 3 105 0 149 -2 98 -3z m-1060 -10 c-24
-2 -62 -2 -85 0 -24 2 -5 4 42 4 47 0 66 -2 43 -4z m1320 0 c-23 -2 -64 -2
-90 0 -26 2 -7 3 42 3 50 0 71 -1 48 -3z m-1495 -10 c-21 -2 -57 -2 -80 0 -24
2 -7 4 37 4 44 0 63 -2 43 -4z m1675 0 c-23 -2 -64 -2 -90 0 -26 2 -7 3 42 3
50 0 71 -1 48 -3z m-1835 -10 c-16 -2 -40 -2 -55 0 -16 2 -3 4 27 4 30 0 43
-2 28 -4z m1980 0 c-15 -2 -42 -2 -60 0 -18 2 -6 4 27 4 33 0 48 -2 33 -4z
m-2090 -10 c-15 -2 -42 -2 -60 0 -18 2 -6 4 27 4 33 0 48 -2 33 -4z m2219 0
c-20 -2 -52 -2 -70 0 -17 2 0 4 38 4 39 0 53 -2 32 -4z m-2344 -10 c-13 -2
-33 -2 -45 0 -13 2 -3 4 22 4 25 0 35 -2 23 -4z m2450 0 c-13 -2 -33 -2 -45 0
-13 2 -3 4 22 4 25 0 35 -2 23 -4z m-2540 -10 c-13 -2 -35 -2 -50 0 -16 2 -5
4 22 4 28 0 40 -2 28 -4z m2645 0 c-16 -2 -40 -2 -55 0 -16 2 -3 4 27 4 30 0
43 -2 28 -4z m-2778 -14 c-25 -4 -63 -7 -85 -7 -38 1 -38 1 10 8 28 4 66 7 85
7 31 0 30 0 -10 -8z m2883 4 c-13 -2 -33 -2 -45 0 -13 2 -3 4 22 4 25 0 35 -2
23 -4z m115 -10 c-15 -2 -42 -2 -60 0 -18 2 -6 4 27 4 33 0 48 -2 33 -4z
m-3128 -7 c0 -6 -191 -28 -196 -23 -3 3 28 9 68 15 83 11 128 14 128 8z m3265
-6 c41 -6 44 -7 15 -8 -19 0 -55 3 -80 7 -61 11 -4 12 65 1z m113 -17 c-10 -2
-26 -2 -35 0 -10 3 -2 5 17 5 19 0 27 -2 18 -5z m-3589 -7 c-2 -2 -31 -6 -64
-9 -39 -4 -50 -3 -30 2 31 9 102 14 94 7z m3674 -3 c-13 -2 -33 -2 -45 0 -13
2 -3 4 22 4 25 0 35 -2 23 -4z m132 -13 c41 -6 44 -7 15 -8 -19 0 -55 3 -80 7
-61 11 -4 12 65 1z m-4000 -15 c-38 -7 -81 -13 -95 -13 -37 0 89 25 130 26 21
0 8 -5 -35 -13z m4098 -2 c-7 -2 -21 -2 -30 0 -10 3 -4 5 12 5 17 0 24 -2 18
-5z m75 -10 c-10 -2 -28 -2 -40 0 -13 2 -5 4 17 4 22 1 32 -1 23 -4z m-4318
-13 c-14 -4 -38 -8 -55 -8 -29 1 -29 1 5 8 50 11 83 11 50 0z m4383 3 c-7 -2
-21 -2 -30 0 -10 3 -4 5 12 5 17 0 24 -2 18 -5z m65 -10 c-10 -2 -26 -2 -35 0
-10 3 -2 5 17 5 19 0 27 -2 18 -5z m-4558 -13 c-14 -4 -34 -8 -45 -8 -16 0
-15 2 5 8 14 4 34 8 45 8 16 0 15 -2 -5 -8z m4670 1 c34 -6 37 -9 15 -9 -16
-1 -48 3 -70 7 -53 11 -5 12 55 2z m-4753 -17 c-3 -3 -12 -4 -19 -1 -8 3 -5 6
6 6 11 1 17 -2 13 -5z m4878 -3 c34 -7 35 -9 10 -9 -16 0 -43 4 -60 8 -42 11
-1 11 50 1z m-4928 -7 c-3 -3 -12 -4 -19 -1 -8 3 -5 6 6 6 11 1 17 -2 13 -5z
m5048 -13 c34 -7 35 -9 10 -9 -16 0 -43 4 -60 8 -42 11 -1 11 50 1z m78 -18
c-7 -2 -19 -2 -25 0 -7 3 -2 5 12 5 14 0 19 -2 13 -5z m65 -10 c-10 -2 -26 -2
-35 0 -10 3 -2 5 17 5 19 0 27 -2 18 -5z m55 -10 c-7 -2 -19 -2 -25 0 -7 3 -2
5 12 5 14 0 19 -2 13 -5z m65 -10 c-10 -2 -26 -2 -35 0 -10 3 -2 5 17 5 19 0
27 -2 18 -5z m87 -13 c27 -7 27 -8 5 -8 -14 0 -36 4 -50 8 -20 6 -21 8 -5 8
11 0 34 -4 50 -8z m68 -17 c-7 -2 -19 -2 -25 0 -7 3 -2 5 12 5 14 0 19 -2 13
-5z m-5826 -3749 c-3 -3 -12 -4 -19 -1 -8 3 -5 6 6 6 11 1 17 -2 13 -5z m-360
-466 c-3 -8 -6 -5 -6 6 -1 11 2 17 5 13 3 -3 4 -12 1 -19z"/>
<path d="M11248 6203 c6 -2 18 -2 25 0 6 3 1 5 -13 5 -14 0 -19 -2 -12 -5z"/>
</g>
</svg>
