<?xml version="1.0" standalone="no"?>
<!DOCTYPE svg PUBLIC "-//W3C//DTD SVG 20010904//EN"
 "http://www.w3.org/TR/2001/REC-SVG-20010904/DTD/svg10.dtd">
<svg version="1.0" xmlns="http://www.w3.org/2000/svg"
 width="1231.000000pt" height="1280.000000pt" viewBox="0 0 1231.000000 1280.000000"
 preserveAspectRatio="xMidYMid meet">
<metadata>
Created by potrace 1.15, written by Peter Selinger 2001-2017
</metadata>
<g transform="translate(0.000000,1280.000000) scale(0.100000,-0.100000)"
fill="#000000" stroke="none">
<path d="M8840 12663 c-428 -70 -973 -271 -1706 -628 -1658 -808 -3921 -2274
-5199 -3370 -540 -463 -880 -833 -1020 -1113 -130 -261 -122 -473 27 -672 102
-136 306 -321 596 -539 45 -35 80 -67 77 -72 -7 -10 55 -73 135 -139 30 -25
57 -47 60 -51 3 -3 52 -41 110 -83 58 -43 112 -83 121 -90 9 -7 45 -33 80 -56
35 -24 66 -46 69 -50 4 -6 614 -412 660 -440 8 -5 57 -37 108 -70 51 -33 95
-60 98 -60 3 0 10 -5 17 -10 17 -15 137 -90 143 -90 3 0 10 -5 17 -10 24 -21
138 -90 147 -90 6 0 10 -3 10 -7 0 -5 10 -13 23 -19 12 -6 210 -124 439 -263
230 -138 422 -251 428 -251 5 0 10 -4 10 -10 0 -5 7 -10 15 -10 8 0 15 -4 15
-10 0 -5 6 -10 13 -10 7 0 48 -22 92 -50 44 -27 86 -50 93 -50 6 0 12 -4 12
-10 0 -5 5 -10 10 -10 6 0 40 -18 76 -40 36 -22 70 -40 74 -40 5 0 10 -3 12
-7 2 -5 19 -16 38 -25 38 -18 92 -50 100 -58 3 -3 21 -13 40 -22 19 -10 55
-29 80 -44 25 -14 63 -36 85 -48 22 -11 42 -23 45 -26 3 -3 23 -15 45 -27 22
-11 58 -31 80 -43 22 -13 59 -33 83 -46 23 -13 61 -35 85 -48 23 -13 60 -33
82 -46 22 -12 63 -35 90 -50 28 -15 70 -39 95 -52 25 -14 70 -38 100 -54 30
-16 57 -31 60 -34 3 -3 30 -18 60 -34 87 -46 172 -91 210 -113 71 -40 304
-164 605 -323 330 -174 1248 -636 1505 -758 47 -22 135 -63 195 -92 61 -29
133 -63 160 -75 28 -13 77 -35 110 -50 33 -15 87 -39 120 -55 33 -15 81 -37
108 -49 108 -48 144 -64 172 -76 17 -7 50 -22 75 -33 40 -17 90 -39 210 -89
19 -9 48 -21 64 -29 16 -8 33 -14 38 -14 4 0 30 -9 56 -21 26 -12 56 -24 67
-29 11 -4 31 -12 45 -18 14 -5 61 -24 105 -40 44 -17 100 -38 125 -47 63 -24
172 -59 260 -85 217 -63 305 -72 385 -40 l30 12 -30 14 c-16 7 -21 12 -10 9
11 -2 76 -18 145 -34 433 -103 703 -77 863 82 66 64 99 141 105 238 13 217
-116 393 -608 831 -52 46 -277 241 -500 434 -223 192 -486 421 -585 509 -1271
1132 -2044 2059 -2414 2897 -160 362 -231 683 -231 1046 0 522 144 1050 456
1674 234 467 543 942 1028 1578 548 718 659 872 749 1041 73 135 100 227 101
339 1 89 -1 100 -36 172 -64 136 -169 216 -336 259 -58 15 -106 19 -211 18
-75 -1 -147 -4 -161 -6z m-7159 -6430 c13 -16 12 -17 -3 -4 -10 7 -18 15 -18
17 0 8 8 3 21 -13z"/>
<path d="M1573 6295 c16 -15 31 -25 33 -22 3 3 -10 15 -28 27 l-33 23 28 -28z"/>
<path d="M10528 1553 c7 -3 16 -2 19 1 4 3 -2 6 -13 5 -11 0 -14 -3 -6 -6z"/>
</g>
</svg>
