<?xml version="1.0" standalone="no"?>
<!DOCTYPE svg PUBLIC "-//W3C//DTD SVG 20010904//EN"
 "http://www.w3.org/TR/2001/REC-SVG-20010904/DTD/svg10.dtd">
<svg version="1.0" xmlns="http://www.w3.org/2000/svg"
 width="1280.000000pt" height="895.000000pt" viewBox="0 0 1280.000000 895.000000"
 preserveAspectRatio="xMidYMid meet">
<metadata>
Created by potrace 1.15, written by Peter Selinger 2001-2017
</metadata>
<g transform="translate(0.000000,895.000000) scale(0.100000,-0.100000)"
fill="#000000" stroke="none">
<path d="M3728 8665 c-125 -123 -436 -418 -690 -657 -932 -872 -1287 -1230
-1659 -1676 -599 -717 -992 -1418 -1223 -2182 -42 -138 -128 -471 -124 -476 2
-1 73 -30 158 -62 414 -159 572 -225 559 -233 -23 -14 -16 -166 12 -244 12
-36 26 -65 31 -65 4 0 8 -7 8 -14 0 -28 126 -141 209 -187 89 -51 152 -77 771
-323 228 -91 471 -188 540 -216 69 -29 184 -75 255 -105 162 -66 360 -148 445
-185 36 -15 153 -65 260 -110 107 -45 229 -97 270 -115 41 -18 145 -63 230
-100 208 -90 815 -360 1020 -453 358 -162 636 -286 725 -321 265 -104 429 -91
495 39 63 124 -24 280 -292 521 -69 63 -80 70 -95 58 -20 -16 -20 -17 40 79
34 54 38 66 26 76 -8 7 -124 107 -259 222 -491 417 -717 613 -805 699 -49 48
-77 77 -61 64 27 -22 28 -22 21 -4 -42 109 -43 213 -2 292 24 45 104 119 165
151 220 116 868 230 1597 282 1264 89 2972 -30 4835 -336 364 -60 487 -71 593
-56 179 26 276 116 311 286 26 122 19 304 -34 968 -27 343 -59 740 -70 883
-39 503 -65 656 -130 785 -65 128 -194 225 -385 290 -84 28 -85 28 -85 8 0
-48 -9 -7 -19 87 -11 97 -41 447 -41 471 0 8 -109 39 -287 83 -1352 330 -2576
476 -3848 458 -878 -12 -1622 -93 -2518 -273 -149 -29 -272 -52 -274 -50 -2 2
8 7 22 10 14 4 23 11 20 16 -3 4 12 41 33 82 21 40 53 107 71 148 19 41 44 98
56 125 73 162 90 225 90 340 0 65 -5 89 -23 125 -42 78 -95 110 -186 110 -131
0 -259 -82 -540 -343 -113 -106 -132 -123 -179 -163 -16 -13 -42 -48 -58 -77
-72 -131 -11 1 207 446 209 426 348 716 374 784 10 24 19 16 -240 195 l-95 66
-227 -223z"/>
</g>
</svg>
