<?xml version="1.0" standalone="no"?>
<!DOCTYPE svg PUBLIC "-//W3C//DTD SVG 20010904//EN"
 "http://www.w3.org/TR/2001/REC-SVG-20010904/DTD/svg10.dtd">
<svg version="1.0" xmlns="http://www.w3.org/2000/svg"
 width="1280.000000pt" height="860.000000pt" viewBox="0 0 1280.000000 860.000000"
 preserveAspectRatio="xMidYMid meet">
<metadata>
Created by potrace 1.15, written by Peter Selinger 2001-2017
</metadata>
<g transform="translate(0.000000,860.000000) scale(0.100000,-0.100000)"
fill="#000000" stroke="none">
<path d="M6860 8550 c11 -27 40 -103 64 -167 36 -98 341 -905 527 -1397 27
-71 47 -131 45 -133 -2 -2 -75 14 -162 36 -708 178 -1362 276 -2224 333 -252
17 -1231 17 -1510 0 -870 -52 -1710 -156 -2605 -323 -282 -52 -960 -192 -968
-199 -8 -7 -33 -3777 -25 -3785 1 -2 104 -24 227 -49 246 -50 314 -68 291 -73
-13 -3 -15 -16 -8 -90 20 -235 105 -337 326 -394 172 -44 1159 -169 1807 -228
814 -75 1416 -104 2195 -104 934 0 1683 48 2505 162 33 5 62 7 64 5 3 -3 11 6
18 18 12 19 13 20 9 3 -3 -11 -12 -51 -20 -90 -15 -74 -103 -440 -231 -959
-41 -170 -74 -310 -73 -312 2 -1 156 90 343 202 373 225 427 256 407 231 -22
-26 -102 -383 -109 -483 -8 -126 1 -176 40 -218 61 -64 154 -59 312 18 50 24
250 139 445 256 195 117 369 221 385 230 17 9 129 77 250 150 121 73 236 141
255 152 19 11 53 32 75 47 22 14 49 31 60 38 39 23 141 86 190 118 28 17 84
54 125 80 1198 767 1895 1427 2230 2110 132 268 190 486 174 655 -22 244 -175
589 -387 870 -124 164 -442 510 -391 425 29 -49 2 -17 -76 90 -388 530 -992
1020 -1950 1582 -366 215 -657 374 -1400 763 -234 122 -532 281 -662 351
l-236 129 -176 0 -176 0 20 -50z"/>
</g>
</svg>
